#!OML:ASF F:\VICON\USERDATA\INSTALL\Justin_Nancy\Justin_Nancy.ASF
:FULLY-SPECIFIED
:DEGREES
318
root -3.82731 17.5323 8.8765 1.29346 -50.8976 1.34608
lowerback 5.83344 -1.38282 -1.93806
upperback -0.50107 -1.8798 3.1816
thorax -3.6226 -0.873681 4.55793
lowerneck -15.195 -2.83817 -10.2457
upperneck 23.6927 -2.58423 4.25594
head 10.2827 -1.68772 2.87751
rclavicle 7.35503e-015 2.94201e-014
rhumerus -36.5981 -18.4483 -74.0646
rradius 26.4591
rwrist 10.0411
rhand -12.2337 12.9513
rfingers 7.12502
rthumb 13.8318 -16.5688
lclavicle 7.35503e-015 2.94201e-014
lhumerus -28.3336 16.2713 85.691
lradius 28.8498
lwrist -9.02283
lhand -19.6159 23.3857
lfingers 7.12502
lthumb 6.7106 53.2594
rfemur -20.6154 5.1588 23.2924
rtibia 16.308
rfoot 3.2259 -0.122021
rtoes 4.21346
lfemur 2.24333 -3.90097 -25.2857
ltibia 36.3316
lfoot 5.22208 -14.9721
ltoes -3.44474
319
root -3.94773 17.522 8.96319 1.17681 -50.9724 1.48668
lowerback 5.73391 -1.24553 -2.08774
upperback -0.426194 -1.7096 3.09164
thorax -3.5029 -0.789905 4.52909
lowerneck -15.4015 -2.92609 -10.0994
upperneck 23.7323 -2.74942 4.36373
head 10.348 -1.73531 2.86925
rclavicle 3.14577e-014 1.59028e-015
rhumerus -36.4368 -19.5354 -73.7402
rradius 26.1059
rwrist 10.7664
rhand -12.105 13.1634
rfingers 7.12502
rthumb 13.9559 -16.3482
lclavicle 3.14577e-014 1.59028e-015
lhumerus -28.4507 16.21 85.5627
lradius 28.3232
lwrist -9.41278
lhand -19.7849 23.118
lfingers 7.12502
lthumb 6.54752 52.9967
rfemur -20.368 5.23477 23.3312
rtibia 16.7843
rfoot 3.09709 0.12662
rtoes 4.96537
lfemur 1.51743 -2.97635 -25.1444
ltibia 37.8016
lfoot 6.68859 -16.7285
ltoes -11.9549
320
root -4.07174 17.5481 9.05147 1.13 -51.0127 1.70584
lowerback 5.49294 -1.15405 -2.32292
upperback -0.398232 -1.60285 3.02786
thorax -3.34373 -0.736255 4.57865
lowerneck -14.7042 -2.93465 -10.4846
upperneck 22.9608 -2.86188 4.93458
head 9.95857 -1.744 3.11588
rclavicle 2.52457e-014 -3.97569e-015
rhumerus -36.342 -19.6626 -73.7804
rradius 26.0845
rwrist 10.7207
rhand -11.4574 14.1836
rfingers 7.12502
rthumb 14.5798 -15.284
lclavicle 2.52457e-014 -3.97569e-015
lhumerus -28.5329 15.7296 85.5746
lradius 27.9143
lwrist -9.16307
lhand -19.7791 23.3094
lfingers 7.12502
lthumb 6.55305 53.188
rfemur -20.1281 5.41305 23.2753
rtibia 17.1144
rfoot 2.88276 0.324188
rtoes 5.6915
lfemur 0.306726 -3.06652 -25.039
ltibia 39.5023
lfoot 10.1415 -17.0248
ltoes -7.77519
321
root -4.1952 17.5824 9.14001 1.35541 -50.9043 1.59972
lowerback 5.32075 -1.18318 -2.45304
upperback -0.414508 -1.64627 3.1028
thorax -3.25398 -0.756906 4.72926
lowerneck -14.3818 -2.89085 -10.7446
upperneck 22.5816 -2.83513 5.2403
head 9.76768 -1.71435 3.26752
rclavicle 7.34509e-014 -1.11319e-014
rhumerus -36.0667 -18.4165 -74.5447
rradius 26.3941
rwrist 9.11992
rhand -11.7493 13.9436
rfingers 7.12502
rthumb 14.2985 -15.5441
lclavicle 7.34509e-014 -1.11319e-014
lhumerus -28.7194 15.3971 85.5853
lradius 27.6153
lwrist -8.7401
lhand -19.6977 23.5696
lfingers 7.12502
lthumb 6.63165 53.4458
rfemur -19.8379 5.54082 23.4138
rtibia 17.4162
rfoot 2.40382 0.222544
rtoes 6.20351
lfemur -1.04324 -3.32302 -24.6989
ltibia 41.4034
lfoot 13.538 -16.9999
ltoes -1.97842
322
root -4.30876 17.6007 9.22137 1.83303 -50.6078 0.975734
lowerback 5.50231 -1.31443 -2.29959
upperback -0.472652 -1.80807 3.30643
thorax -3.39875 -0.83553 4.87572
lowerneck -14.8789 -2.81853 -10.3489
upperneck 23.0298 -2.67296 4.77351
head 9.99576 -1.66236 3.06094
rclavicle -2.36554e-014 1.35174e-014
rhumerus -35.8077 -17.2213 -75.2395
rradius 26.6442
rwrist 8.0258
rhand -12.5123 13.0551
rfingers 7.12502
rthumb 13.5633 -16.4832
lclavicle -2.36554e-014 1.35174e-014
lhumerus -29.0717 15.6163 85.4405
lradius 27.4141
lwrist -8.59317
lhand -18.8349 23.9172
lfingers 7.12502
lthumb 7.46447 53.7655
rfemur -19.2112 5.53444 23.9187
rtibia 17.2961
rfoot 2.09331 -0.189709
rtoes 6.95072
lfemur -2.37838 -3.22693 -23.9387
ltibia 43.5611
lfoot 16.2538 -17.4646
ltoes 1.61663
323
root -4.41269 17.6058 9.30162 2.39641 -50.3007 0.273412
lowerback 5.73336 -1.405 -1.99132
upperback -0.569541 -1.90336 3.50837
thorax -3.62308 -0.881818 4.93142
lowerneck -15.0875 -2.7431 -9.94702
upperneck 23.2626 -2.52192 4.25149
head 10.095 -1.62067 2.82935
rclavicle -6.22196e-014 1.35174e-014
rhumerus -35.7135 -16.687 -75.3558
rradius 26.7398
rwrist 8.54445
rhand -12.4331 12.8641
rfingers 7.12502
rthumb 13.6396 -16.669
lclavicle -6.22196e-014 1.35174e-014
lhumerus -29.3961 15.6211 85.3904
lradius 27.257
lwrist -8.26884
lhand -17.6784 24.2524
lfingers 7.12502
lthumb 8.58069 54.058
rfemur -18.5945 5.70989 24.4281
rtibia 17.0094
rfoot 1.99004 -0.672402
rtoes 6.78739
lfemur -3.90438 -3.04284 -23.161
ltibia 45.8787
lfoot 18.4644 -18.7262
ltoes 2.75368
324
root -4.52172 17.6232 9.3889 2.80801 -50.0633 -0.283963
lowerback 5.87427 -1.38661 -1.74154
upperback -0.632562 -1.85611 3.6816
thorax -3.77496 -0.858523 4.97489
lowerneck -15.0146 -2.81134 -9.98514
upperneck 23.2446 -2.61414 4.2435
head 10.083 -1.66777 2.82057
rclavicle -7.21588e-014 5.56597e-015
rhumerus -35.5723 -16.6654 -75.2576
rradius 26.6799
rwrist 8.95018
rhand -12.4092 13.153
rfingers 7.12502
rthumb 13.6626 -16.3786
lclavicle -7.21588e-014 5.56597e-015
lhumerus -29.59 15.1833 85.5236
lradius 27.0491
lwrist -7.79122
lhand -17.0425 24.8396
lfingers 7.12502
lthumb 9.19436 54.6192
rfemur -17.8516 5.76666 24.863
rtibia 16.6996
rfoot 1.74792 -0.909424
rtoes 6.40802
lfemur -5.44309 -2.84166 -22.4881
ltibia 48.2695
lfoot 20.472 -19.8215
ltoes 2.84812
325
root -4.63024 17.6457 9.47443 3.25348 -49.8032 -0.947727
lowerback 6.00047 -1.31976 -1.36636
upperback -0.575824 -1.73819 3.80201
thorax -3.80593 -0.8076 4.88119
lowerneck -15.5484 -2.98753 -9.81219
upperneck 23.5178 -2.83196 4.16693
head 10.2974 -1.76061 2.7357
rclavicle -3.37934e-014 1.43125e-014
rhumerus -35.2613 -16.368 -75.5449
rradius 26.7704
rwrist 8.13669
rhand -12.7313 13.2994
rfingers 7.12502
rthumb 13.3522 -16.2528
lclavicle -3.37934e-014 1.43125e-014
lhumerus -29.5404 14.3223 85.827
lradius 26.6034
lwrist -7.99797
lhand -18.0034 24.7434
lfingers 7.12502
lthumb 8.26702 54.5616
rfemur -17.0931 5.78565 25.4005
rtibia 16.506
rfoot 1.37185 -1.26781
rtoes 6.31037
lfemur -7.05067 -2.7788 -21.6739
ltibia 50.6599
lfoot 23.0605 -19.9483
ltoes 6.11347
326
root -4.72982 17.661 9.55546 3.55021 -49.5843 -1.33591
lowerback 6.09342 -1.27282 -1.09703
upperback -0.491168 -1.65761 3.80625
thorax -3.7851 -0.77481 4.72641
lowerneck -15.9759 -3.12537 -9.489
upperneck 23.627 -3.01633 3.97797
head 10.425 -1.83429 2.58696
rclavicle 4.79071e-014 -1.03368e-014
rhumerus -35.0367 -16.2862 -75.6524
rradius 26.8931
rwrist 8.38672
rhand -12.1938 14.2738
rfingers 7.12502
rthumb 13.8703 -15.2437
lclavicle 4.79071e-014 -1.03368e-014
lhumerus -29.3557 13.6133 85.9901
lradius 25.8312
lwrist -9.28274
lhand -19.3185 23.7453
lfingers 7.12502
lthumb 6.9977 53.6096
rfemur -16.525 5.68093 25.7451
rtibia 16.3561
rfoot 1.06091 -1.48661
rtoes 6.72646
lfemur -8.78409 -2.758 -21.0747
ltibia 53.0027
lfoot 25.5058 -19.4681
ltoes 10.2555
327
root -4.82831 17.6712 9.64401 3.29623 -49.3701 -0.969735
lowerback 6.23704 -1.23997 -1.30374
upperback -0.566293 -1.6271 3.74193
thorax -3.94308 -0.751271 4.78077
lowerneck -15.458 -3.18319 -9.67173
upperneck 23.2242 -3.11807 4.07056
head 10.193 -1.88309 2.63561
rclavicle -5.35725e-014 -7.95139e-015
rhumerus -35.1729 -16.3283 -75.357
rradius 27.1458
rwrist 9.13966
rhand -11.4165 14.9644
rfingers 7.12502
rthumb 14.6192 -14.5003
lclavicle -5.35725e-014 -7.95139e-015
lhumerus -29.5075 13.0499 86.1193
lradius 25.3935
lwrist -10.0046
lhand -19.6688 23.4965
lfingers 7.12502
lthumb 6.65952 53.3717
rfemur -16.0595 5.34502 25.5503
rtibia 16.3406
rfoot 0.591392 -1.41629
rtoes 6.5032
lfemur -10.4292 -2.59304 -21.1329
ltibia 55.1989
lfoot 26.6596 -19.1507
ltoes 10.4395
